G04 #@! TF.GenerationSoftware,KiCad,Pcbnew,5.1.5*
G04 #@! TF.CreationDate,2020-05-30T11:49:08+02:00*
G04 #@! TF.ProjectId,PIV_CDMix,5049565f-4344-44d6-9978-2e6b69636164,rev?*
G04 #@! TF.SameCoordinates,Original*
G04 #@! TF.FileFunction,Soldermask,Top*
G04 #@! TF.FilePolarity,Negative*
%FSLAX46Y46*%
G04 Gerber Fmt 4.6, Leading zero omitted, Abs format (unit mm)*
G04 Created by KiCad (PCBNEW 5.1.5) date 2020-05-30 11:49:08*
%MOMM*%
%LPD*%
G04 APERTURE LIST*
%ADD10C,0.100000*%
G04 APERTURE END LIST*
D10*
G36*
X144893512Y-115943927D02*
G01*
X145042812Y-115973624D01*
X145206784Y-116041544D01*
X145354354Y-116140147D01*
X145479853Y-116265646D01*
X145578456Y-116413216D01*
X145646376Y-116577188D01*
X145681000Y-116751259D01*
X145681000Y-116928741D01*
X145646376Y-117102812D01*
X145578456Y-117266784D01*
X145479853Y-117414354D01*
X145354354Y-117539853D01*
X145206784Y-117638456D01*
X145042812Y-117706376D01*
X144893512Y-117736073D01*
X144868742Y-117741000D01*
X144691258Y-117741000D01*
X144666488Y-117736073D01*
X144517188Y-117706376D01*
X144353216Y-117638456D01*
X144205646Y-117539853D01*
X144080147Y-117414354D01*
X143981544Y-117266784D01*
X143913624Y-117102812D01*
X143879000Y-116928741D01*
X143879000Y-116751259D01*
X143913624Y-116577188D01*
X143981544Y-116413216D01*
X144080147Y-116265646D01*
X144205646Y-116140147D01*
X144353216Y-116041544D01*
X144517188Y-115973624D01*
X144666488Y-115943927D01*
X144691258Y-115939000D01*
X144868742Y-115939000D01*
X144893512Y-115943927D01*
G37*
G36*
X147433512Y-115943927D02*
G01*
X147582812Y-115973624D01*
X147746784Y-116041544D01*
X147894354Y-116140147D01*
X148019853Y-116265646D01*
X148118456Y-116413216D01*
X148186376Y-116577188D01*
X148221000Y-116751259D01*
X148221000Y-116928741D01*
X148186376Y-117102812D01*
X148118456Y-117266784D01*
X148019853Y-117414354D01*
X147894354Y-117539853D01*
X147746784Y-117638456D01*
X147582812Y-117706376D01*
X147433512Y-117736073D01*
X147408742Y-117741000D01*
X147231258Y-117741000D01*
X147206488Y-117736073D01*
X147057188Y-117706376D01*
X146893216Y-117638456D01*
X146745646Y-117539853D01*
X146620147Y-117414354D01*
X146521544Y-117266784D01*
X146453624Y-117102812D01*
X146419000Y-116928741D01*
X146419000Y-116751259D01*
X146453624Y-116577188D01*
X146521544Y-116413216D01*
X146620147Y-116265646D01*
X146745646Y-116140147D01*
X146893216Y-116041544D01*
X147057188Y-115973624D01*
X147206488Y-115943927D01*
X147231258Y-115939000D01*
X147408742Y-115939000D01*
X147433512Y-115943927D01*
G37*
G36*
X149973512Y-115943927D02*
G01*
X150122812Y-115973624D01*
X150286784Y-116041544D01*
X150434354Y-116140147D01*
X150559853Y-116265646D01*
X150658456Y-116413216D01*
X150726376Y-116577188D01*
X150761000Y-116751259D01*
X150761000Y-116928741D01*
X150726376Y-117102812D01*
X150658456Y-117266784D01*
X150559853Y-117414354D01*
X150434354Y-117539853D01*
X150286784Y-117638456D01*
X150122812Y-117706376D01*
X149973512Y-117736073D01*
X149948742Y-117741000D01*
X149771258Y-117741000D01*
X149746488Y-117736073D01*
X149597188Y-117706376D01*
X149433216Y-117638456D01*
X149285646Y-117539853D01*
X149160147Y-117414354D01*
X149061544Y-117266784D01*
X148993624Y-117102812D01*
X148959000Y-116928741D01*
X148959000Y-116751259D01*
X148993624Y-116577188D01*
X149061544Y-116413216D01*
X149160147Y-116265646D01*
X149285646Y-116140147D01*
X149433216Y-116041544D01*
X149597188Y-115973624D01*
X149746488Y-115943927D01*
X149771258Y-115939000D01*
X149948742Y-115939000D01*
X149973512Y-115943927D01*
G37*
G36*
X153301000Y-117741000D02*
G01*
X151499000Y-117741000D01*
X151499000Y-115939000D01*
X153301000Y-115939000D01*
X153301000Y-117741000D01*
G37*
G36*
X125843512Y-115943927D02*
G01*
X125992812Y-115973624D01*
X126156784Y-116041544D01*
X126304354Y-116140147D01*
X126429853Y-116265646D01*
X126528456Y-116413216D01*
X126596376Y-116577188D01*
X126631000Y-116751259D01*
X126631000Y-116928741D01*
X126596376Y-117102812D01*
X126528456Y-117266784D01*
X126429853Y-117414354D01*
X126304354Y-117539853D01*
X126156784Y-117638456D01*
X125992812Y-117706376D01*
X125843512Y-117736073D01*
X125818742Y-117741000D01*
X125641258Y-117741000D01*
X125616488Y-117736073D01*
X125467188Y-117706376D01*
X125303216Y-117638456D01*
X125155646Y-117539853D01*
X125030147Y-117414354D01*
X124931544Y-117266784D01*
X124863624Y-117102812D01*
X124829000Y-116928741D01*
X124829000Y-116751259D01*
X124863624Y-116577188D01*
X124931544Y-116413216D01*
X125030147Y-116265646D01*
X125155646Y-116140147D01*
X125303216Y-116041544D01*
X125467188Y-115973624D01*
X125616488Y-115943927D01*
X125641258Y-115939000D01*
X125818742Y-115939000D01*
X125843512Y-115943927D01*
G37*
G36*
X129171000Y-117741000D02*
G01*
X127369000Y-117741000D01*
X127369000Y-115939000D01*
X129171000Y-115939000D01*
X129171000Y-117741000D01*
G37*
G36*
X158228512Y-115943927D02*
G01*
X158377812Y-115973624D01*
X158541784Y-116041544D01*
X158689354Y-116140147D01*
X158814853Y-116265646D01*
X158913456Y-116413216D01*
X158981376Y-116577188D01*
X159016000Y-116751259D01*
X159016000Y-116928741D01*
X158981376Y-117102812D01*
X158913456Y-117266784D01*
X158814853Y-117414354D01*
X158689354Y-117539853D01*
X158541784Y-117638456D01*
X158377812Y-117706376D01*
X158228512Y-117736073D01*
X158203742Y-117741000D01*
X158026258Y-117741000D01*
X158001488Y-117736073D01*
X157852188Y-117706376D01*
X157688216Y-117638456D01*
X157540646Y-117539853D01*
X157415147Y-117414354D01*
X157316544Y-117266784D01*
X157248624Y-117102812D01*
X157214000Y-116928741D01*
X157214000Y-116751259D01*
X157248624Y-116577188D01*
X157316544Y-116413216D01*
X157415147Y-116265646D01*
X157540646Y-116140147D01*
X157688216Y-116041544D01*
X157852188Y-115973624D01*
X158001488Y-115943927D01*
X158026258Y-115939000D01*
X158203742Y-115939000D01*
X158228512Y-115943927D01*
G37*
G36*
X158228512Y-113403927D02*
G01*
X158377812Y-113433624D01*
X158541784Y-113501544D01*
X158689354Y-113600147D01*
X158814853Y-113725646D01*
X158913456Y-113873216D01*
X158981376Y-114037188D01*
X159016000Y-114211259D01*
X159016000Y-114388741D01*
X158981376Y-114562812D01*
X158913456Y-114726784D01*
X158814853Y-114874354D01*
X158689354Y-114999853D01*
X158541784Y-115098456D01*
X158377812Y-115166376D01*
X158228512Y-115196073D01*
X158203742Y-115201000D01*
X158026258Y-115201000D01*
X158001488Y-115196073D01*
X157852188Y-115166376D01*
X157688216Y-115098456D01*
X157540646Y-114999853D01*
X157415147Y-114874354D01*
X157316544Y-114726784D01*
X157248624Y-114562812D01*
X157214000Y-114388741D01*
X157214000Y-114211259D01*
X157248624Y-114037188D01*
X157316544Y-113873216D01*
X157415147Y-113725646D01*
X157540646Y-113600147D01*
X157688216Y-113501544D01*
X157852188Y-113433624D01*
X158001488Y-113403927D01*
X158026258Y-113399000D01*
X158203742Y-113399000D01*
X158228512Y-113403927D01*
G37*
G36*
X144893512Y-112387927D02*
G01*
X145042812Y-112417624D01*
X145206784Y-112485544D01*
X145354354Y-112584147D01*
X145479853Y-112709646D01*
X145578456Y-112857216D01*
X145646376Y-113021188D01*
X145681000Y-113195259D01*
X145681000Y-113372741D01*
X145646376Y-113546812D01*
X145578456Y-113710784D01*
X145479853Y-113858354D01*
X145354354Y-113983853D01*
X145206784Y-114082456D01*
X145042812Y-114150376D01*
X144893512Y-114180073D01*
X144868742Y-114185000D01*
X144691258Y-114185000D01*
X144666488Y-114180073D01*
X144517188Y-114150376D01*
X144353216Y-114082456D01*
X144205646Y-113983853D01*
X144080147Y-113858354D01*
X143981544Y-113710784D01*
X143913624Y-113546812D01*
X143879000Y-113372741D01*
X143879000Y-113195259D01*
X143913624Y-113021188D01*
X143981544Y-112857216D01*
X144080147Y-112709646D01*
X144205646Y-112584147D01*
X144353216Y-112485544D01*
X144517188Y-112417624D01*
X144666488Y-112387927D01*
X144691258Y-112383000D01*
X144868742Y-112383000D01*
X144893512Y-112387927D01*
G37*
G36*
X158228512Y-110863927D02*
G01*
X158377812Y-110893624D01*
X158541784Y-110961544D01*
X158689354Y-111060147D01*
X158814853Y-111185646D01*
X158913456Y-111333216D01*
X158981376Y-111497188D01*
X159016000Y-111671259D01*
X159016000Y-111848741D01*
X158981376Y-112022812D01*
X158913456Y-112186784D01*
X158814853Y-112334354D01*
X158689354Y-112459853D01*
X158541784Y-112558456D01*
X158377812Y-112626376D01*
X158228512Y-112656073D01*
X158203742Y-112661000D01*
X158026258Y-112661000D01*
X158001488Y-112656073D01*
X157852188Y-112626376D01*
X157688216Y-112558456D01*
X157540646Y-112459853D01*
X157415147Y-112334354D01*
X157316544Y-112186784D01*
X157248624Y-112022812D01*
X157214000Y-111848741D01*
X157214000Y-111671259D01*
X157248624Y-111497188D01*
X157316544Y-111333216D01*
X157415147Y-111185646D01*
X157540646Y-111060147D01*
X157688216Y-110961544D01*
X157852188Y-110893624D01*
X158001488Y-110863927D01*
X158026258Y-110859000D01*
X158203742Y-110859000D01*
X158228512Y-110863927D01*
G37*
G36*
X144893512Y-109847927D02*
G01*
X145042812Y-109877624D01*
X145206784Y-109945544D01*
X145354354Y-110044147D01*
X145479853Y-110169646D01*
X145578456Y-110317216D01*
X145646376Y-110481188D01*
X145681000Y-110655259D01*
X145681000Y-110832741D01*
X145646376Y-111006812D01*
X145578456Y-111170784D01*
X145479853Y-111318354D01*
X145354354Y-111443853D01*
X145206784Y-111542456D01*
X145042812Y-111610376D01*
X144893512Y-111640073D01*
X144868742Y-111645000D01*
X144691258Y-111645000D01*
X144666488Y-111640073D01*
X144517188Y-111610376D01*
X144353216Y-111542456D01*
X144205646Y-111443853D01*
X144080147Y-111318354D01*
X143981544Y-111170784D01*
X143913624Y-111006812D01*
X143879000Y-110832741D01*
X143879000Y-110655259D01*
X143913624Y-110481188D01*
X143981544Y-110317216D01*
X144080147Y-110169646D01*
X144205646Y-110044147D01*
X144353216Y-109945544D01*
X144517188Y-109877624D01*
X144666488Y-109847927D01*
X144691258Y-109843000D01*
X144868742Y-109843000D01*
X144893512Y-109847927D01*
G37*
G36*
X159016000Y-110121000D02*
G01*
X157214000Y-110121000D01*
X157214000Y-108319000D01*
X159016000Y-108319000D01*
X159016000Y-110121000D01*
G37*
G36*
X144893512Y-107307927D02*
G01*
X145042812Y-107337624D01*
X145206784Y-107405544D01*
X145354354Y-107504147D01*
X145479853Y-107629646D01*
X145578456Y-107777216D01*
X145646376Y-107941188D01*
X145681000Y-108115259D01*
X145681000Y-108292741D01*
X145646376Y-108466812D01*
X145578456Y-108630784D01*
X145479853Y-108778354D01*
X145354354Y-108903853D01*
X145206784Y-109002456D01*
X145042812Y-109070376D01*
X144893512Y-109100073D01*
X144868742Y-109105000D01*
X144691258Y-109105000D01*
X144666488Y-109100073D01*
X144517188Y-109070376D01*
X144353216Y-109002456D01*
X144205646Y-108903853D01*
X144080147Y-108778354D01*
X143981544Y-108630784D01*
X143913624Y-108466812D01*
X143879000Y-108292741D01*
X143879000Y-108115259D01*
X143913624Y-107941188D01*
X143981544Y-107777216D01*
X144080147Y-107629646D01*
X144205646Y-107504147D01*
X144353216Y-107405544D01*
X144517188Y-107337624D01*
X144666488Y-107307927D01*
X144691258Y-107303000D01*
X144868742Y-107303000D01*
X144893512Y-107307927D01*
G37*
G36*
X145681000Y-106565000D02*
G01*
X143879000Y-106565000D01*
X143879000Y-104763000D01*
X145681000Y-104763000D01*
X145681000Y-106565000D01*
G37*
G36*
X170928512Y-101973927D02*
G01*
X171077812Y-102003624D01*
X171241784Y-102071544D01*
X171389354Y-102170147D01*
X171514853Y-102295646D01*
X171613456Y-102443216D01*
X171681376Y-102607188D01*
X171716000Y-102781259D01*
X171716000Y-102958741D01*
X171681376Y-103132812D01*
X171613456Y-103296784D01*
X171514853Y-103444354D01*
X171389354Y-103569853D01*
X171241784Y-103668456D01*
X171077812Y-103736376D01*
X170928512Y-103766073D01*
X170903742Y-103771000D01*
X170726258Y-103771000D01*
X170701488Y-103766073D01*
X170552188Y-103736376D01*
X170388216Y-103668456D01*
X170240646Y-103569853D01*
X170115147Y-103444354D01*
X170016544Y-103296784D01*
X169948624Y-103132812D01*
X169914000Y-102958741D01*
X169914000Y-102781259D01*
X169948624Y-102607188D01*
X170016544Y-102443216D01*
X170115147Y-102295646D01*
X170240646Y-102170147D01*
X170388216Y-102071544D01*
X170552188Y-102003624D01*
X170701488Y-101973927D01*
X170726258Y-101969000D01*
X170903742Y-101969000D01*
X170928512Y-101973927D01*
G37*
G36*
X144893512Y-101973927D02*
G01*
X145042812Y-102003624D01*
X145206784Y-102071544D01*
X145354354Y-102170147D01*
X145479853Y-102295646D01*
X145578456Y-102443216D01*
X145646376Y-102607188D01*
X145681000Y-102781259D01*
X145681000Y-102958741D01*
X145646376Y-103132812D01*
X145578456Y-103296784D01*
X145479853Y-103444354D01*
X145354354Y-103569853D01*
X145206784Y-103668456D01*
X145042812Y-103736376D01*
X144893512Y-103766073D01*
X144868742Y-103771000D01*
X144691258Y-103771000D01*
X144666488Y-103766073D01*
X144517188Y-103736376D01*
X144353216Y-103668456D01*
X144205646Y-103569853D01*
X144080147Y-103444354D01*
X143981544Y-103296784D01*
X143913624Y-103132812D01*
X143879000Y-102958741D01*
X143879000Y-102781259D01*
X143913624Y-102607188D01*
X143981544Y-102443216D01*
X144080147Y-102295646D01*
X144205646Y-102170147D01*
X144353216Y-102071544D01*
X144517188Y-102003624D01*
X144666488Y-101973927D01*
X144691258Y-101969000D01*
X144868742Y-101969000D01*
X144893512Y-101973927D01*
G37*
G36*
X144893512Y-99433927D02*
G01*
X145042812Y-99463624D01*
X145206784Y-99531544D01*
X145354354Y-99630147D01*
X145479853Y-99755646D01*
X145578456Y-99903216D01*
X145646376Y-100067188D01*
X145681000Y-100241259D01*
X145681000Y-100418741D01*
X145646376Y-100592812D01*
X145578456Y-100756784D01*
X145479853Y-100904354D01*
X145354354Y-101029853D01*
X145206784Y-101128456D01*
X145042812Y-101196376D01*
X144893512Y-101226073D01*
X144868742Y-101231000D01*
X144691258Y-101231000D01*
X144666488Y-101226073D01*
X144517188Y-101196376D01*
X144353216Y-101128456D01*
X144205646Y-101029853D01*
X144080147Y-100904354D01*
X143981544Y-100756784D01*
X143913624Y-100592812D01*
X143879000Y-100418741D01*
X143879000Y-100241259D01*
X143913624Y-100067188D01*
X143981544Y-99903216D01*
X144080147Y-99755646D01*
X144205646Y-99630147D01*
X144353216Y-99531544D01*
X144517188Y-99463624D01*
X144666488Y-99433927D01*
X144691258Y-99429000D01*
X144868742Y-99429000D01*
X144893512Y-99433927D01*
G37*
G36*
X170928512Y-99433927D02*
G01*
X171077812Y-99463624D01*
X171241784Y-99531544D01*
X171389354Y-99630147D01*
X171514853Y-99755646D01*
X171613456Y-99903216D01*
X171681376Y-100067188D01*
X171716000Y-100241259D01*
X171716000Y-100418741D01*
X171681376Y-100592812D01*
X171613456Y-100756784D01*
X171514853Y-100904354D01*
X171389354Y-101029853D01*
X171241784Y-101128456D01*
X171077812Y-101196376D01*
X170928512Y-101226073D01*
X170903742Y-101231000D01*
X170726258Y-101231000D01*
X170701488Y-101226073D01*
X170552188Y-101196376D01*
X170388216Y-101128456D01*
X170240646Y-101029853D01*
X170115147Y-100904354D01*
X170016544Y-100756784D01*
X169948624Y-100592812D01*
X169914000Y-100418741D01*
X169914000Y-100241259D01*
X169948624Y-100067188D01*
X170016544Y-99903216D01*
X170115147Y-99755646D01*
X170240646Y-99630147D01*
X170388216Y-99531544D01*
X170552188Y-99463624D01*
X170701488Y-99433927D01*
X170726258Y-99429000D01*
X170903742Y-99429000D01*
X170928512Y-99433927D01*
G37*
G36*
X170928512Y-96893927D02*
G01*
X171077812Y-96923624D01*
X171241784Y-96991544D01*
X171389354Y-97090147D01*
X171514853Y-97215646D01*
X171613456Y-97363216D01*
X171681376Y-97527188D01*
X171716000Y-97701259D01*
X171716000Y-97878741D01*
X171681376Y-98052812D01*
X171613456Y-98216784D01*
X171514853Y-98364354D01*
X171389354Y-98489853D01*
X171241784Y-98588456D01*
X171077812Y-98656376D01*
X170928512Y-98686073D01*
X170903742Y-98691000D01*
X170726258Y-98691000D01*
X170701488Y-98686073D01*
X170552188Y-98656376D01*
X170388216Y-98588456D01*
X170240646Y-98489853D01*
X170115147Y-98364354D01*
X170016544Y-98216784D01*
X169948624Y-98052812D01*
X169914000Y-97878741D01*
X169914000Y-97701259D01*
X169948624Y-97527188D01*
X170016544Y-97363216D01*
X170115147Y-97215646D01*
X170240646Y-97090147D01*
X170388216Y-96991544D01*
X170552188Y-96923624D01*
X170701488Y-96893927D01*
X170726258Y-96889000D01*
X170903742Y-96889000D01*
X170928512Y-96893927D01*
G37*
G36*
X144893512Y-96893927D02*
G01*
X145042812Y-96923624D01*
X145206784Y-96991544D01*
X145354354Y-97090147D01*
X145479853Y-97215646D01*
X145578456Y-97363216D01*
X145646376Y-97527188D01*
X145681000Y-97701259D01*
X145681000Y-97878741D01*
X145646376Y-98052812D01*
X145578456Y-98216784D01*
X145479853Y-98364354D01*
X145354354Y-98489853D01*
X145206784Y-98588456D01*
X145042812Y-98656376D01*
X144893512Y-98686073D01*
X144868742Y-98691000D01*
X144691258Y-98691000D01*
X144666488Y-98686073D01*
X144517188Y-98656376D01*
X144353216Y-98588456D01*
X144205646Y-98489853D01*
X144080147Y-98364354D01*
X143981544Y-98216784D01*
X143913624Y-98052812D01*
X143879000Y-97878741D01*
X143879000Y-97701259D01*
X143913624Y-97527188D01*
X143981544Y-97363216D01*
X144080147Y-97215646D01*
X144205646Y-97090147D01*
X144353216Y-96991544D01*
X144517188Y-96923624D01*
X144666488Y-96893927D01*
X144691258Y-96889000D01*
X144868742Y-96889000D01*
X144893512Y-96893927D01*
G37*
G36*
X171716000Y-96151000D02*
G01*
X169914000Y-96151000D01*
X169914000Y-94349000D01*
X171716000Y-94349000D01*
X171716000Y-96151000D01*
G37*
G36*
X145681000Y-96151000D02*
G01*
X143879000Y-96151000D01*
X143879000Y-94349000D01*
X145681000Y-94349000D01*
X145681000Y-96151000D01*
G37*
M02*
