M48
INCH,TZ
T1C0.0394
%
G90
G05
T1
X57000Y-37500
X57000Y-38500
X57000Y-39500
X57000Y-40500
X57000Y-46000
X58000Y-46000
X59000Y-46000
X60000Y-46000
X49500Y-46000
X50500Y-46000
X57000Y-41600
X57000Y-42600
X57000Y-43600
X57000Y-44600
X67250Y-37500
X67250Y-38500
X67250Y-39500
X67250Y-40500
X62250Y-43000
X62250Y-44000
X62250Y-45000
X62250Y-46000
T0
M30
